# xmcd CD database file
#
# Track frame offsets:
#	150
#	11364
#	23433
#	36690
#	52392
#	64715
#	77716
#	91013
#	105350
#	121697
#	132320
#	147060
#	164115
#	177805
#	188748
#	206828
#	220634
#	243472
#	255851
#	268903
#	288231
#	304273
#	318253
#
# Disc length: 4492 seconds
#
# Revision: 0
# Processed by: cddbd v1.5PL3 Copyright (c) Steve Scherf et al.
# Submitted via: CDex 1.51
#
DISCID=40118a17
DTITLE=Various Artist - Smím prosit podruhé?
DYEAR=2001
DGENRE=Jazz
TTITLE0=Stan Getz feat. Astrud Gilberto - Corcovado
TTITLE1=Willie Bobo - Evil Ways
TTITLE2=Roland Kirk - Theme From Peter Gunn
TTITLE3=Ella Fitzgerald - Black Coffee
TTITLE4=George Benson Groovin'
TTITLE5=Mel Torme - Born To Be Blue
TTITLE6=Xavier Cugat - Night Train
TTITLE7=Blossom Dearie - Blossom's Blues
TTITLE8=Quincy Jones - Oh, Happy Day
TTITLE9=Willie Bobo - It's Not Unusual
TTITLE10=Chet Baker - Spinning Wheel
TTITLE11=Walter Wanderlay - Blue Island
TTITLE12=Dizzy Gillespie - Bang, Bang
TTITLE13=Louis Armstrong - I Love Jazz
TTITLE14=Quincy Jones - I Got You (I Feel Good)
TTITLE15=Nina Simone - The Other Woman
TTITLE16=Ben Webster feat. Coleman Hawkins - La Rosita
TTITLE17=Les McCann - Green, Green Rocky Road
TTITLE18=George Benson - Sunny
TTITLE19=Willie Bobo - The Look Of Love
TTITLE20=Walter Wanderley - Good Bye Sadness (Tristeza)
TTITLE21=Xavier Cugat - One Mint Julep
TTITLE22=Sammy Davis Jr. and Count Basie and His Orchestra - The Girl From Ipanema
EXTD=YEAR: 2001
EXTT0=
EXTT1=
EXTT2=
EXTT3=
EXTT4=
EXTT5=
EXTT6=
EXTT7=
EXTT8=
EXTT9=
EXTT10=
EXTT11=
EXTT12=
EXTT13=
EXTT14=
EXTT15=
EXTT16=
EXTT17=
EXTT18=
EXTT19=
EXTT20=
EXTT21=
EXTT22=
PLAYORDER=
